<?xml version="1.0" encoding="UTF-8"?>
<svg width="700pt" height="700pt" version="1.1" viewBox="0 0 700 700" xmlns="http://www.w3.org/2000/svg">
 <path fill="#d8d4cf" d="m216.01 308.99c-9.5664-9.5703-9.5664-25.082 0-34.648 9.5703-9.5703 25.082-9.5703 34.648 0l99.344 99.34 99.344-99.34c9.5664-9.5703 25.078-9.5703 34.648 0 9.5664 9.5664 9.5664 25.078 0 34.648l-116.67 116.66c-9.5664 9.5703-25.082 9.5703-34.648 0zm0-140c-9.5664-9.5703-9.5664-25.082 0-34.648 9.5703-9.5703 25.082-9.5703 34.648 0l99.344 99.34 99.344-99.34c9.5664-9.5703 25.078-9.5703 34.648 0 9.5664 9.5664 9.5664 25.078 0 34.648l-116.67 116.66c-9.5664 9.5703-25.082 9.5703-34.648 0z"/>
</svg>
